PathFileType	4	(X/Y/Z)	c:/Users/goper/Files/vsCode/490R/osim_files/A04/A04_Slow_04.trc
DataRate	CameraRate	NumFrames	NumMarkers	Units                	OrigDataRate	OrigDataStartFrame	OrigNumFrames
120.00	120.00	10	36	mm	120.0	709	1133
                Frame#	Time	LPSIS			LASIS			LTH1			LTH2			LTH3			LTH4			LLFE			LMFE			LSH1			LSH2			LSH3			LSH4			LLMAL			LMMAL			LCAL			LMTP5			LTOE			LMTP1			RPSIS			RASIS			RTH1			RTH2			RTH3			RTH4			RLFE			RMFE			RSH1			RSH2			RSH3			RSH4			RLMAL			RMMAL			RCAL			RMTP1			RTOE			RMTP5		
		X1	Y1	Z1	X2	Y2	Z2	X3	Y3	Z3	X4	Y4	Z4	X5	Y5	Z5	X6	Y6	Z6	X7	Y7	Z7	X8	Y8	Z8	X9	Y9	Z9	X10	Y10	Z10	X11	Y11	Z11	X12	Y12	Z12	X13	Y13	Z13	X14	Y14	Z14	X15	Y15	Z15	X16	Y16	Z16	X17	Y17	Z17	X18	Y18	Z18	X19	Y19	Z19	X20	Y20	Z20	X21	Y21	Z21	X22	Y22	Z22	X23	Y23	Z23	X24	Y24	Z24	X25	Y25	Z25	X26	Y26	Z26	X27	Y27	Z27	X28	Y28	Z28	X29	Y29	Z29	X30	Y30	Z30	X31	Y31	Z31	X32	Y32	Z32	X33	Y33	Z33	X34	Y34	Z34	X35	Y35	Z35	X36	Y36	Z36

709	5.90000	-1941.18164	1065.25964	355.14828	-2162.29053	1020.68549	433.15393	-2163.72144	706.68457	477.06909	-2177.42798	664.24481	478.97253	-2220.76416	720.96045	473.68970	-2228.62622	677.87506	476.09256	-2221.87378	526.64124	476.99417	-2238.35547	514.18335	339.95682	-2123.19067	482.77585	475.96970	-2096.10962	448.78168	472.85474	-2168.29858	437.87979	465.18188	-2132.83521	412.71146	462.98883	-1875.68713	274.14185	424.02151	-1898.58179	254.24898	341.37851	-1810.81592	297.60690	361.64026	-1912.98108	130.51018	466.66824	-1957.87866	99.11157	410.39896	-1939.87708	102.28371	364.36197	-1937.18896	1057.06726	249.09236	-2158.34058	1034.55457	147.00421	-2083.04907	723.04236	122.52998	-2094.54834	682.19025	123.75823	-2143.51855	733.80914	111.80741	-2147.87622	686.43237	117.52039	-2162.25854	553.53473	148.22313	-2172.78931	553.89923	261.68884	-2104.35376	339.85529	161.10628	-2109.33252	292.89307	170.58098	-2164.42725	337.81583	151.57436	-2159.19263	290.64523	157.93942	-2130.46802	98.93756	170.81367	-2169.34351	115.48048	302.06720	-2072.70337	57.39481	257.60059	-2298.97949	66.39679	271.45456	-2316.31421	87.40662	222.56470	-2278.08911	56.48749	153.69075
710	5.90833	-1948.12207	1066.85583	354.69858	-2169.12354	1022.43744	432.90958	-2176.41357	710.02069	476.50189	-2190.88013	667.80487	478.20438	-2234.74609	726.08575	473.24225	-2241.46289	683.15271	475.78253	-2237.95703	531.10065	475.79337	-2253.43701	519.40198	339.12900	-2140.30859	485.14954	475.39236	-2113.76587	450.54703	472.34250	-2184.75879	442.76718	465.25696	-2151.37451	415.24014	462.15787	-1897.13245	271.09283	424.54547	-1919.87720	251.47089	342.00467	-1831.07861	293.14529	362.84186	-1938.07922	128.40530	466.73685	-1983.13208	98.07440	410.05017	-1964.42603	100.72058	364.29968	-1943.95898	1058.60669	248.56056	-2165.27002	1035.06299	146.63118	-2086.27856	724.01184	122.66338	-2097.45654	682.89209	123.99068	-2146.86743	733.86493	111.72886	-2150.71021	686.46118	117.57588	-2163.74780	553.50104	148.26855	-2173.57520	553.21912	261.66940	-2104.79834	340.02255	161.37849	-2109.80493	293.07904	170.75659	-2165.02515	337.87708	151.82407	-2159.63379	290.74551	158.11212	-2130.55688	99.06804	170.87517	-2169.48779	115.44701	302.11713	-2072.08789	57.79221	257.14676	-2299.00439	66.18615	271.52960	-2316.42188	87.23924	222.61496	-2278.07495	56.42018	153.70929
711	5.91667	-1955.12207	1068.40088	354.27246	-2176.03857	1024.10510	432.69803	-2188.80786	713.35822	475.89435	-2203.91138	671.57922	477.44159	-2245.18384	729.80817	471.99750	-2254.38452	687.53760	474.81268	-2254.10059	535.59735	474.43253	-2270.13794	525.07202	335.79987	-2157.24805	487.37509	474.79572	-2131.55493	452.02509	471.86768	-2202.56177	446.13068	464.33038	-2169.90625	417.72250	461.29315	-1919.21460	267.37381	425.22104	-1941.35864	248.72891	342.34708	-1852.06763	288.04477	364.19244	-1963.89819	125.68678	466.83310	-2009.16772	96.61937	409.63556	-1989.82910	98.75444	364.12476	-1950.93762	1060.00061	248.17023	-2172.30176	1035.50232	146.32051	-2089.78540	724.77966	122.90070	-2100.27734	683.64539	124.23402	-2150.42554	733.97687	111.75842	-2153.49829	686.52246	117.59250	-2165.19995	553.44141	148.34929	-2175.25879	553.09161	261.88132	-2105.64185	340.22198	161.58508	-2110.33740	293.24991	170.96246	-2165.59570	337.97446	152.02740	-2160.17773	290.82208	158.32625	-2130.70532	99.21796	170.94949	-2169.63696	115.40846	302.19724	-2072.29712	58.06552	257.23172	-2299.16895	66.00722	271.65491	-2316.47852	87.03012	222.67299	-2278.14600	56.37638	153.72597
712	5.92500	-1962.21545	1069.75110	353.91623	-2183.05420	1025.53906	432.46906	-2200.57275	716.62311	475.58194	-2216.51562	675.21899	476.86011	-2258.95435	734.82764	471.47147	-2267.48340	691.92145	473.66922	-2270.04102	539.77936	473.07635	-2284.16675	530.08484	334.39963	-2173.87109	489.23685	474.13037	-2149.16797	453.27164	471.37933	-2220.74854	449.16428	463.12808	-2188.65332	419.81750	460.41873	-1941.45801	263.08566	425.95767	-1963.40393	245.38925	342.61670	-1873.27368	282.15585	365.42520	-1990.45605	122.55182	466.92209	-2036.09534	95.03767	409.43082	-2015.80322	96.29550	363.91843	-1958.05334	1061.26819	247.82858	-2179.26904	1035.91003	145.97395	-2093.20630	725.59955	123.11112	-2103.24048	684.39453	124.45493	-2154.00513	734.01105	111.75251	-2156.54688	686.53571	117.62158	-2166.84741	553.35211	148.44519	-2177.11865	552.95844	262.06790	-2106.30322	340.45905	161.81616	-2111.11279	293.34744	171.20746	-2166.38452	338.10062	152.34079	-2160.84766	290.91425	158.56461	-2130.86719	99.30890	171.07802	-2169.87964	115.39149	302.26611	-2072.38232	58.21340	257.24884	-2299.28613	65.80704	271.70840	-2316.57300	86.81492	222.73994	-2278.23511	56.30165	153.76942
713	5.93333	-1969.24951	1071.00952	353.58932	-2192.20679	1027.64868	432.66302	-2211.91650	719.86005	475.13275	-2228.69824	678.63367	476.24146	-2269.50806	738.71820	470.37314	-2278.86255	695.95520	472.39120	-2283.19263	545.00110	472.34995	-2299.92480	535.72601	333.36569	-2190.57495	490.81277	473.16122	-2166.64404	454.23267	470.86273	-2238.01611	452.12665	462.13870	-2206.83447	421.89307	459.70874	-1964.00500	258.23956	426.61972	-1985.92090	241.42868	343.21375	-1894.87646	275.59064	366.59515	-2017.30481	119.02945	466.92786	-2063.28125	92.94398	409.04575	-2042.43323	93.66248	363.57529	-1965.06519	1062.40002	247.53827	-2186.25073	1036.18604	145.73672	-2096.65112	726.42572	123.30222	-2106.28247	685.02386	124.61504	-2157.60034	734.10718	111.80803	-2159.61353	686.60822	117.72878	-2168.58105	553.26447	148.58456	-2179.38696	552.73413	262.13275	-2107.02832	340.70264	162.10307	-2111.64966	293.67001	171.46674	-2167.00171	338.23923	152.57529	-2161.37915	291.02158	158.78833	-2131.05664	99.48957	171.15862	-2170.09399	115.34865	302.32471	-2072.45728	58.33521	257.29086	-2299.37183	65.91250	272.02087	-2316.72461	86.67663	222.83237	-2278.29956	56.23381	153.82906
714	5.94167	-1976.27832	1072.15869	353.28177	-2198.22754	1028.77344	432.36404	-2223.22290	722.87103	474.38049	-2240.63599	681.99268	475.40326	-2280.85474	743.08990	470.09982	-2291.17065	700.29468	471.60440	-2298.35303	549.37842	470.94522	-2313.24438	540.47546	332.05804	-2207.13306	492.18002	472.96915	-2183.81152	454.99762	470.30154	-2255.49170	455.22293	460.97137	-2225.42480	423.78268	458.37839	-1986.95422	252.90514	427.14737	-2008.70837	237.01132	343.65164	-1916.89001	268.31201	367.78412	-2044.71033	115.33125	466.82797	-2091.06128	90.76650	408.53882	-2069.49927	90.76395	363.30243	-1972.15564	1063.48193	247.20236	-2193.35205	1036.49890	145.47943	-2100.35083	727.08118	123.50102	-2109.45972	685.61810	124.77940	-2161.27563	734.15363	111.87053	-2162.82568	686.67609	117.82608	-2170.29492	553.22229	148.81482	-2181.37549	552.66925	262.34079	-2107.89062	340.90387	162.35980	-2112.22681	293.85980	171.65709	-2167.71387	338.34076	152.85260	-2162.04834	291.16159	159.08124	-2131.24023	99.69306	171.30226	-2170.35156	115.34496	302.47095	-2072.49194	58.47950	257.32761	-2299.49023	65.76409	272.12967	-2316.80859	86.46799	222.97171	-2278.32251	56.19579	153.90594
715	5.95000	-1983.42603	1073.20801	353.02304	-2204.95288	1029.95288	432.10931	-2234.17969	725.64020	473.75702	-2252.09570	685.07538	474.74817	-2291.59399	746.87280	469.55832	-2302.44238	704.08490	470.41583	-2312.33130	553.50293	469.84122	-2326.12061	545.00372	330.76971	-2223.13184	493.29233	472.35114	-2200.89355	455.42203	469.79758	-2272.05347	457.83994	460.39645	-2243.49976	425.59311	457.58942	-2010.35645	247.20859	427.59973	-2031.71960	232.27901	343.92154	-1939.37610	260.48615	368.89667	-2072.79443	111.53998	466.74393	-2119.34985	88.48741	408.07703	-2099.32031	89.94051	364.13657	-1979.34802	1064.38513	246.96550	-2200.44092	1036.82483	145.38727	-2104.04102	727.86725	123.68792	-2112.78467	686.27136	125.01985	-2165.14453	734.19421	111.98719	-2166.24121	686.70764	117.94501	-2172.20776	553.17010	148.98358	0.00000	0.00000	0.00000	-2108.60425	341.17389	162.65120	-2113.04126	294.07803	171.97914	-2168.67358	338.34842	153.15828	-2162.76855	291.26022	159.36281	-2131.55688	100.10233	171.37344	-2169.73853	115.24437	302.08856	-2072.57837	58.61636	257.41315	-2299.62036	65.50209	272.26901	-2316.95898	86.22248	223.11278	-2278.40063	56.15606	153.96944
716	5.95833	-1990.42969	1074.15210	352.72318	-2212.09717	1031.20105	431.92361	-2244.10767	728.26373	473.06284	-2263.51367	687.72931	474.06308	-2301.98950	750.34937	468.91736	-2313.37207	707.64886	469.44382	-2325.37793	557.53271	468.47900	-2338.47388	549.34314	329.42990	-2238.71729	494.19608	471.73019	-2218.20654	455.14761	469.35611	-2288.63940	460.24673	459.42120	-2261.02661	426.98990	457.11578	-2034.21948	241.09384	428.03677	-2054.20142	227.28784	343.17603	-1962.58875	251.86589	369.86279	-2101.41455	107.58566	466.53323	-2148.16235	86.06978	407.39557	-2127.04321	85.98483	362.31943	-1986.45886	1065.25171	246.74210	-2207.56177	1036.78833	145.06935	-2107.94238	728.46790	123.82721	-2116.22534	686.87079	125.18732	-2169.01318	734.15894	112.09911	-2169.77124	686.74347	118.11591	-2174.17480	553.07300	149.18747	-2185.51050	552.11127	262.88815	-2109.66577	341.36359	162.99483	-2113.86426	294.29071	172.23895	-2169.54956	338.42343	153.40105	-2163.49805	291.39172	159.58800	-2131.77441	100.30222	171.48190	-2170.17676	115.07602	302.39413	-2072.53320	58.71745	257.54919	-2299.72778	65.17114	272.40775	-2317.08594	85.82706	223.31470	-2278.50635	56.04238	154.04411
717	5.96667	-1997.47180	1074.94031	352.46109	-2219.07812	1032.32031	431.76181	-2254.75293	730.34113	472.47989	-2274.09619	690.18848	473.33829	-2310.59766	752.88635	466.41110	-2323.70874	710.71454	468.50522	-2338.36304	561.31976	467.27344	-2349.65991	553.26172	328.02133	-2253.98560	494.86050	471.05939	-2234.84253	454.30765	469.37918	-2304.57983	462.63873	458.36816	-2278.08960	428.18399	456.43152	-2058.27148	234.66092	428.41800	-2078.66528	221.68010	343.71112	-1985.93042	243.02954	370.66534	-2130.39453	103.52030	466.31531	-2177.52759	83.88495	406.79456	-2156.02930	83.07693	361.85614	-1993.58997	1065.93469	246.44414	-2214.67139	1036.85034	144.75673	-2111.97607	729.07593	123.87839	-2120.08838	687.38892	125.30092	-2173.08032	734.21075	112.20177	-2173.48096	686.76965	118.27569	-2176.22754	552.95477	149.37386	-2187.66797	551.79053	263.17987	-2110.64502	341.57968	163.24429	-2114.57178	294.51971	172.44691	-2170.53638	338.55426	153.72348	-2164.31665	291.45349	159.83818	-2132.03662	100.47482	171.59860	-2170.35815	115.04707	302.46979	-2072.82617	58.90493	257.58475	-2299.82202	64.85895	272.53033	-2317.24683	85.59551	223.39172	-2278.57349	55.95893	154.08687
718	5.97500	-2004.62219	1075.72461	352.18707	-2226.18701	1033.38770	431.61826	-2265.70605	732.23981	474.08414	-2283.85815	692.48853	472.58237	-2319.85010	755.62109	465.46881	-2333.90845	713.69928	467.53000	-2350.76440	564.91980	466.13889	-2361.76904	557.53955	326.94751	-2268.64722	495.39755	470.48700	-2251.13135	454.33286	468.66959	-2320.51538	465.01727	457.37088	-2295.58081	429.75986	455.52283	-2082.71509	227.94359	428.70316	-2103.11060	215.86861	344.05081	-2009.58521	233.73880	371.50122	-2159.88647	99.56242	466.05640	-2208.29907	82.32993	406.70297	-2185.49097	80.14603	361.38910	-2000.84204	1066.46741	246.25005	-2221.71875	1036.75989	144.56621	-2116.24194	729.57629	123.90349	-2123.77734	687.78931	125.42852	-2177.41626	734.17755	112.32216	-2177.29834	686.74860	118.40810	-2178.48633	552.88977	149.49554	-2190.02783	551.60431	263.43372	-2111.66309	341.81891	163.48543	-2115.57324	294.74432	172.68240	-2171.45435	338.65866	154.00478	-2165.16602	291.50931	160.07524	-2132.45215	100.62898	171.68675	-2170.56860	114.99186	302.55270	-2072.93945	59.08148	257.59436	-2299.98779	64.59105	272.68350	-2317.18677	85.27885	223.35309	-2278.60352	55.98300	154.07574
